<?xml version="1.0" standalone="no"?>
<!DOCTYPE svg PUBLIC "-//W3C//DTD SVG 20010904//EN"
 "http://www.w3.org/TR/2001/REC-SVG-20010904/DTD/svg10.dtd">
<svg version="1.0" xmlns="http://www.w3.org/2000/svg"
 width="96.000000pt" height="96.000000pt" viewBox="0 0 96.000000 96.000000"
 preserveAspectRatio="xMidYMid meet">
<metadata>
Created by potrace 1.11, written by Peter Selinger 2001-2013
</metadata>
<g transform="translate(0.000000,96.000000) scale(0.100000,-0.100000)"
fill="#000000" stroke="none">
<path d="M300 684 c-78 -21 -179 -85 -184 -117 -1 -8 -9 -25 -17 -38 -55 -85
-5 -181 93 -178 33 1 33 1 -7 10 -70 16 -94 73 -59 140 21 41 96 87 167 101
39 8 62 19 69 32 10 18 7 19 -48 14 -59 -5 -53 -2 38 20 34 8 51 32 21 31 -10
0 -43 -7 -73 -15z"/>
<path d="M790 645 c-11 -13 -8 -15 18 -15 46 0 47 -15 2 -63 -22 -24 -40 -47
-40 -51 0 -13 103 -1 108 12 2 7 -6 12 -24 12 l-28 0 27 28 c15 15 27 35 27
44 0 41 -64 64 -90 33z"/>
<path d="M364 585 c27 -7 56 -21 63 -31 19 -26 16 -84 -6 -117 -33 -51 -120
-97 -183 -97 -21 0 -33 -8 -48 -32 l-20 -33 26 -3 c41 -5 159 35 206 71 46 35
88 105 88 148 0 55 -71 110 -142 108 -30 0 -28 -2 16 -14z"/>
<path d="M510 439 c0 -77 1 -79 25 -79 22 0 24 4 27 57 3 52 6 59 31 71 42 20
32 30 -28 30 l-55 -1 0 -78z"/>
<path d="M636 504 c-3 -9 -6 -17 -6 -18 0 -1 19 0 41 2 53 5 49 -17 -6 -36
-21 -7 -45 -18 -52 -24 -18 -14 -16 -43 3 -62 17 -18 64 -22 64 -6 0 6 -7 10
-15 10 -22 0 -18 37 4 50 32 17 41 12 41 -25 0 -31 3 -35 25 -35 24 0 25 2 25
64 0 79 -13 96 -75 96 -30 0 -45 -5 -49 -16z"/>
</g>
</svg>
